<?xml version="1.0" encoding="utf-8"?>
<!-- Generator: Adobe Illustrator 14.0.0, SVG Export Plug-In . SVG Version: 6.00 Build 43363)  -->
<!DOCTYPE svg PUBLIC "-//W3C//DTD SVG 1.1//EN" "http://www.w3.org/Graphics/SVG/1.1/DTD/svg11.dtd">
<svg version="1.1" id="Layer_1" xmlns="http://www.w3.org/2000/svg" xmlns:xlink="http://www.w3.org/1999/xlink" x="0px" y="0px"
	 width="262px" height="169px" viewBox="0 0 262 169" enable-background="new 0 0 262 169" xml:space="preserve">
<g>
	<polygon fill="#FFFFFF" points="94.048,18.931 94.048,35.105 48.593,35.105 48.593,18.931 23.229,18.931 23.229,150.069 
		48.593,150.069 48.593,38.879 58.754,38.879 58.754,150.067 84.119,150.067 84.119,38.879 94.048,38.879 94.048,150.069 
		119.413,150.069 119.413,18.931 	"/>
	<polygon fill="#FFFFFF" points="213.407,18.931 213.407,35.105 167.952,35.105 167.952,18.931 142.587,18.931 142.587,150.069 
		167.952,150.069 167.952,38.879 178.113,38.879 178.113,150.067 203.478,150.067 203.478,38.879 213.407,38.879 213.407,150.069 
		238.771,150.069 238.771,18.931 	"/>
</g>
</svg>
